<svg width="27" height="24" viewBox="0 0 27 24" fill="none" xmlns="http://www.w3.org/2000/svg">
<mask id="mask0_8_181" style="mask-type:alpha" maskUnits="userSpaceOnUse" x="0" y="0" width="27" height="24">
<rect x="0.411758" width="26.1176" height="24" fill="#D9D9D9"/>
</mask>
<g mask="url(#mask0_8_181)">
<path d="M21.7412 21L14.8853 14.7C14.3412 15.1 13.7154 15.4167 13.0081 15.65C12.3007 15.8833 11.548 16 10.75 16C8.77304 16 7.09987 15.3708 5.73051 14.1125C4.36115 12.8542 3.67647 11.3167 3.67647 9.5C3.67647 7.68333 4.36115 6.14583 5.73051 4.8875C7.09987 3.62917 8.77304 3 10.75 3C12.727 3 14.4001 3.62917 15.7695 4.8875C17.1388 6.14583 17.8235 7.68333 17.8235 9.5C17.8235 10.2333 17.6966 10.925 17.4426 11.575C17.1887 12.225 16.8441 12.8 16.4088 13.3L23.2647 19.6L21.7412 21ZM10.75 14C12.1103 14 13.2665 13.5625 14.2187 12.6875C15.171 11.8125 15.6471 10.75 15.6471 9.5C15.6471 8.25 15.171 7.1875 14.2187 6.3125C13.2665 5.4375 12.1103 5 10.75 5C9.3897 5 8.23345 5.4375 7.28125 6.3125C6.32904 7.1875 5.85294 8.25 5.85294 9.5C5.85294 10.75 6.32904 11.8125 7.28125 12.6875C8.23345 13.5625 9.3897 14 10.75 14Z" fill="#888888"/>
</g>
</svg>
